<svg xmlns="http://www.w3.org/2000/svg" width="39" height="39" viewBox="0 0 39 39">
  <g id="Group_948" data-name="Group 948" transform="translate(-66 -675)">
    <rect id="Rectangle_180" data-name="Rectangle 180" width="39" height="39" rx="4" transform="translate(66 675)" fill="#fff"/>
    <g id="search" transform="translate(74.377 683.377)">
      <path id="Path_569" data-name="Path 569" d="M4.951,145.735l-.778,2.9-2.842.06a11.189,11.189,0,0,1-.082-10.43h0l2.53.464,1.108,2.515a6.666,6.666,0,0,0,.063,4.488Z" transform="translate(0 -132.235)" fill="#fbbb00"/>
      <path id="Path_570" data-name="Path 570" d="M272.357,208.176a11.165,11.165,0,0,1-3.982,10.8h0l-3.187-.163-.451-2.816a6.657,6.657,0,0,0,2.864-3.4h-5.973v-4.419h10.729Z" transform="translate(-250.213 -199.093)" fill="#518ef8"/>
      <path id="Path_571" data-name="Path 571" d="M47.34,315.789h0a11.174,11.174,0,0,1-16.832-3.417l3.62-2.963a6.643,6.643,0,0,0,9.573,3.4Z" transform="translate(-29.178 -295.909)" fill="#28b446"/>
      <path id="Path_572" data-name="Path 572" d="M45.675,2.572,42.056,5.534a6.642,6.642,0,0,0-9.793,3.478L28.625,6.033h0A11.172,11.172,0,0,1,45.675,2.572Z" transform="translate(-27.375)" fill="#f14336"/>
    </g>
  </g>
</svg>
