<svg fill="#3760D6" height="20px" width="20px" viewBox="-145 0 512 512.001" xmlns="http://www.w3.org/2000/svg"><path d="m110.675781 0c-61.027343 0-110.675781 49.648438-110.675781 110.675781 0 61.023438 49.648438 110.671875 110.675781 110.671875 61.023438 0 110.671875-49.648437 110.671875-110.671875 0-61.027343-49.648437-110.675781-110.671875-110.675781zm0 0"/><path d="m69.367188 245.394531-.296876 166.980469c-.003906 2.273438.316407 4.53125.949219 6.710938l23.207031 79.945312c2.253907 7.757812 9.195313 12.96875 17.273438 12.96875s15.015625-5.210938 17.269531-12.96875l23.210938-79.957031c.628906-2.164063.949219-4.402344.949219-6.644531l.296874-167.113282c-13.089843 4.273438-27.054687 6.59375-41.550781 6.59375-14.410156 0-28.289062-2.292968-41.308593-6.515625zm0 0"/></svg>